HIERARCHY
ROOT Hips
{
	OFFSET 0.000000 0.000000 0.000000
	CHANNELS 6 Xposition Yposition Zposition Zrotation Yrotation Xrotation 
	JOINT LowerBack
	{
		OFFSET 0.000000 0.000000 0.000000
		CHANNELS 3 Zrotation Yrotation Xrotation
		JOINT Spine
		{
			OFFSET 0.028270 2.035590 -0.193380
			CHANNELS 3 Zrotation Yrotation Xrotation
			JOINT Spine1
			{
				OFFSET 0.056720 2.048850 -0.042750
				CHANNELS 3 Zrotation Yrotation Xrotation
				JOINT Neck
				{
					OFFSET 0.000000 0.000000 0.000000
					CHANNELS 3 Zrotation Yrotation Xrotation
					JOINT Neck1
					{
						OFFSET -0.054170 1.746240 0.172020
						CHANNELS 3 Zrotation Yrotation Xrotation
						JOINT Head
						{
							OFFSET 0.104070 1.761360 -0.123970
							CHANNELS 3 Zrotation Yrotation Xrotation
							End Site
							{
								OFFSET 0.000000 0.000000 0.000000
							}
						}
					}
				}
				JOINT LeftShoulder
				{
					OFFSET 0.000000 0.000000 0.000000
					CHANNELS 3 Zrotation Yrotation Xrotation
					JOINT LeftArm
					{
						OFFSET 3.362410 1.200890 -0.311210
						CHANNELS 3 Zrotation Yrotation Xrotation
						JOINT LeftForeArm
						{
							OFFSET 4.983000 -0.000000 -0.000000
							CHANNELS 3 Zrotation Yrotation Xrotation
							JOINT LeftHand
							{
								OFFSET 3.483560 -0.000000 -0.000000
								CHANNELS 3 Zrotation Yrotation Xrotation
								JOINT LeftFingerBase
								{
									OFFSET 0.000000 0.000000 0.000000
									CHANNELS 3 Zrotation Yrotation Xrotation
									JOINT LeftHandIndex1
									{
										OFFSET 0.715260 -0.000000 -0.000000
										CHANNELS 3 Zrotation Yrotation Xrotation
										End Site
										{
											OFFSET 0.000000 0.000000 0.000000
										}
									}
								}
								JOINT LThumb
								{
									OFFSET 0.000000 0.000000 0.000000
									CHANNELS 3 Zrotation Yrotation Xrotation
									End Site
									{
										OFFSET 0.000000 0.000000 0.000000
									}
								}
							}
						}
					}
				}
				JOINT RightShoulder
				{
					OFFSET 0.000000 0.000000 0.000000
					CHANNELS 3 Zrotation Yrotation Xrotation
					JOINT RightArm
					{
						OFFSET -3.136600 1.374050 -0.404650
						CHANNELS 3 Zrotation Yrotation Xrotation
						JOINT RightForeArm
						{
							OFFSET -5.241900 -0.000000 -0.000000
							CHANNELS 3 Zrotation Yrotation Xrotation
							JOINT RightHand
							{
								OFFSET -3.444170 -0.000000 -0.000000
								CHANNELS 3 Zrotation Yrotation Xrotation
								JOINT RightFingerBase
								{
									OFFSET 0.000000 0.000000 0.000000
									CHANNELS 3 Zrotation Yrotation Xrotation
									JOINT RightHandIndex1
									{
										OFFSET -0.622530 -0.000000 -0.000000
										CHANNELS 3 Zrotation Yrotation Xrotation
										End Site
										{
											OFFSET 0.000000 0.000000 0.000000
										}
									}
								}
								JOINT RThumb
								{
									OFFSET 0.000000 0.000000 0.000000
									CHANNELS 3 Zrotation Yrotation Xrotation
									End Site
									{
										OFFSET 0.000000 0.000000 0.000000
									}
								}
							}
						}
					}
				}
			}
		}
	}
}
}
MOTION
Frames: 10
Frame Time: 0.008333
3.307073 15.720382 -0.115228 72.450799 -85.566963 -33.079256 -2.469295 -2.849604 0.731198 -1.184424 -2.721756 -2.884536 -5.597845 -2.726084 -0.559866 9.890353 -12.243231 -9.413112 -1.905358 -0.088241 -0.899770 0.000000 0.000000 0.000000 5.978860 3.174583 4.129304 -52.991141 12.304271 -8.726786 -0.177392 -85.820248 -0.012417 1.856293 3.110794 0.050925 -0.129206 0.255085 0.000000 0.000000 0.000000 0.000000 0.000000 0.000000 0.000000 6.474635 -6.739207 0.814598 64.531738 19.820843 12.567023 179.299651 79.526664 179.978074 -3.491467 4.982530 -0.173829 0.116370 -0.566729 -0.000000 0.000000 0.000000 0.000000 0.000000 0.000000 0.000000 
3.307538 15.767562 -0.151919 72.712210 -85.354385 -34.093476 -2.719743 -2.832365 0.928659 -1.235549 -2.685903 -2.819178 -5.592320 -2.686583 -0.456759 9.897000 -12.430176 -9.380966 -1.887509 -0.088006 -0.876250 0.000000 0.000000 0.000000 6.085453 3.424690 4.074226 -52.919458 12.803842 -8.320590 -0.210371 -85.345329 -0.012797 1.927292 3.231676 0.055006 -0.130729 0.245256 0.000000 0.000000 0.000000 0.000000 0.000000 0.000000 0.000000 6.501898 -6.950425 0.749416 64.478563 19.792738 12.976336 179.299246 79.574947 179.978288 -3.496754 4.918796 -0.171922 0.117607 -0.562164 -0.000000 0.000000 0.000000 0.000000 0.000000 0.000000 0.000000 
3.307636 15.814024 -0.187493 72.811754 -85.141496 -34.910397 -2.967039 -2.815954 1.103432 -1.285414 -2.651945 -2.760772 -5.585664 -2.649396 -0.358739 9.897191 -12.611822 -9.344775 -1.870525 -0.087912 -0.851870 0.000000 0.000000 0.000000 6.200876 3.657276 4.015275 -52.880787 13.319110 -7.911782 -0.239709 -84.923176 -0.013061 1.991683 3.320179 0.058590 -0.131956 0.236149 0.000000 0.000000 0.000000 0.000000 0.000000 0.000000 0.000000 6.523479 -7.156264 0.686020 64.429222 19.762925 13.386338 179.299865 79.630816 179.978423 -3.513034 4.868350 -0.171011 0.119044 -0.557911 -0.000000 0.000000 0.000000 0.000000 0.000000 0.000000 0.000000 
3.307331 15.859684 -0.221942 72.758382 -84.926590 -35.532879 -3.211762 -2.802790 1.256800 -1.333978 -2.622223 -2.708719 -5.577357 -2.616856 -0.265522 9.894523 -12.789217 -9.308918 -1.854233 -0.087857 -0.828177 0.000000 0.000000 0.000000 6.325472 3.876104 3.954242 -52.880712 13.847230 -7.507098 -0.265658 -84.550080 -0.013152 2.038621 3.372284 0.060975 -0.132726 0.227848 0.000000 0.000000 0.000000 0.000000 0.000000 0.000000 0.000000 6.543377 -7.358077 0.625598 64.381538 19.738315 13.797378 179.301222 79.694518 179.978510 -3.537136 4.833436 -0.171002 0.120654 -0.554030 -0.000000 0.000000 0.000000 0.000000 0.000000 0.000000 0.000000 
3.306666 15.904458 -0.255151 72.545508 -84.709361 -35.949826 -3.452581 -2.794298 1.391139 -1.380980 -2.598160 -2.662605 -5.567518 -2.590377 -0.178242 9.891709 -12.963264 -9.276249 -1.838587 -0.087773 -0.806216 0.000000 0.000000 0.000000 6.457122 4.077283 3.892964 -52.923055 14.392263 -7.115874 -0.288315 -84.225193 -0.013038 2.059942 3.386808 0.061963 -0.132905 0.220370 0.000000 0.000000 0.000000 0.000000 0.000000 0.000000 0.000000 6.564266 -7.556430 0.569812 64.333738 19.722208 14.206366 179.302822 79.762846 179.978582 -3.565401 4.815276 -0.171690 0.122396 -0.550597 -0.000000 0.000000 0.000000 0.000000 0.000000 0.000000 0.000000 
3.305772 15.948341 -0.287093 72.174843 -84.489329 -36.161515 -3.688433 -2.791141 1.511148 -1.426324 -2.580364 -2.621521 -5.556538 -2.570513 -0.097966 9.891322 -13.134214 -9.248990 -1.823760 -0.087623 -0.786832 0.000000 0.000000 0.000000 6.593049 4.258316 3.833020 -53.009277 14.953785 -6.744931 -0.307925 -83.945538 -0.012716 2.051905 3.365729 0.061451 -0.132431 0.213692 0.000000 0.000000 0.000000 0.000000 0.000000 0.000000 0.000000 6.589502 -7.751203 0.520083 64.284146 19.715493 14.607792 179.304234 79.832564 179.978664 -3.594286 4.814125 -0.172977 0.124215 -0.547656 -0.000000 0.000000 0.000000 0.000000 0.000000 0.000000 0.000000 
3.304752 15.991322 -0.317778 71.658702 -84.265809 -36.178460 -3.919476 -2.793362 1.622255 -1.470283 -2.568759 -2.584306 -5.545078 -2.557095 -0.025323 9.896004 -13.302551 -9.228572 -1.809923 -0.087381 -0.770621 0.000000 0.000000 0.000000 6.730185 4.418052 3.775601 -53.138575 15.527627 -6.398919 -0.324855 -83.706126 -0.012213 2.015298 3.314281 0.059539 -0.131320 0.207751 0.000000 0.000000 0.000000 0.000000 0.000000 0.000000 0.000000 6.622322 -7.942774 0.477315 64.232171 19.717791 14.994493 179.304973 79.898521 179.978779 -3.620652 4.829643 -0.174766 0.126054 -0.545248 -0.000000 0.000000 0.000000 0.000000 0.000000 0.000000 0.000000 
3.303773 16.033392 -0.347293 71.019073 -84.037093 -36.022701 -4.147654 -2.800837 1.730268 -1.513584 -2.563039 -2.549709 -5.534048 -2.549708 0.039177 9.908251 -13.467209 -9.215754 -1.797501 -0.087054 -0.757955 0.000000 0.000000 0.000000 6.866616 4.556839 3.721679 -53.308282 16.107141 -6.079394 -0.339533 -83.500699 -0.011579 1.955438 3.240277 0.056625 -0.129658 0.202453 0.000000 0.000000 0.000000 0.000000 0.000000 0.000000 0.000000 6.666828 -8.130046 0.441998 64.178253 19.726566 15.358477 179.304779 79.957588 179.978940 -3.642058 4.859841 -0.176753 0.127849 -0.543361 -0.000000 0.000000 0.000000 0.000000 0.000000 0.000000 0.000000 
3.302957 16.074527 -0.375614 70.265129 -83.803597 -35.702032 -4.371278 -2.812385 1.839058 -1.556165 -2.562056 -2.517000 -5.524296 -2.547112 0.095100 9.928690 -13.628026 -9.210051 -1.786763 -0.086665 -0.748756 0.000000 0.000000 0.000000 6.997899 4.673225 3.671588 -53.515275 16.686046 -5.787270 -0.352311 -83.323707 -0.010875 1.880200 3.153582 0.053111 -0.127569 0.197669 0.000000 0.000000 0.000000 0.000000 0.000000 0.000000 0.000000 6.724052 -8.312860 0.414248 64.122936 19.737287 15.690834 179.303369 80.005530 179.979156 -3.656662 4.902631 -0.178840 0.129548 -0.541980 -0.000000 0.000000 0.000000 0.000000 0.000000 0.000000 0.000000 
3.302628 16.114729 -0.403185 69.457983 -83.559799 -35.278905 -4.601015 -2.828674 1.953970 -1.600559 -2.565928 -2.484235 -5.516723 -2.549232 0.144762 9.962347 -13.781217 -9.212495 -1.778195 -0.086217 -0.743471 0.000000 0.000000 0.000000 7.130646 4.783187 3.625725 -53.754958 17.237155 -5.513279 -0.364146 -83.159406 -0.010179 1.801367 3.064845 0.049596 -0.125277 0.193341 0.000000 0.000000 0.000000 0.000000 0.000000 0.000000 0.000000 6.801084 -8.488660 0.392176 64.069988 19.747884 15.984372 179.300837 80.039819 179.979419 -3.664039 4.955167 -0.181031 0.131074 -0.541054 -0.000000 0.000000 0.000000 0.000000 0.000000 0.000000 0.000000 
